<?xml version="1.0" encoding="utf-8"?>
<!-- Generator: Adobe Illustrator 28.3.0, SVG Export Plug-In . SVG Version: 6.00 Build 0)  -->
<svg version="1.1" id="Layer_1" xmlns="http://www.w3.org/2000/svg" xmlns:xlink="http://www.w3.org/1999/xlink" x="0px" y="0px"
	 viewBox="0 0 1080 1080" style="enable-background:new 0 0 1080 1080;" xml:space="preserve">
<style type="text/css">
	.st0{fill:#FFFFFF;}
</style>
<g>
	<path d="M37.22,117.13c26.29,0,51.87,0,78.75,0c0-18.32,0-36.13,0-55.6c58,3.27,114.55,6.46,172.46,9.72c0-17.81,0-36.12,0-54.35
		c97.41,9.9,181.8,40.17,251.51,98.11c69.75-57.97,154.14-88.24,251.27-98.07c0,18.05,0,36.17,0,54.36
		c57.61-3.27,114.14-6.49,172.07-9.78c0,19.06,0,36.86,0,55.41c27.11,0,52.94,0,79.5,0c0,315.59,0,630.42,0,946.14
		c-3.67,0-6.97,0-10.27,0c-155.09,0-310.19,0.05-465.28-0.14c-8.45-0.01-33.03,0.03-37.08,0.03c-93.92,0.15-187.84,0.11-281.76,0.11
		c-66.42,0-132.85,0-199.27,0c-3.69,0-7.37,0-11.9,0C37.22,747.82,37.22,433.02,37.22,117.13z M310.69,37.29
		c0,305.04,0,608.16,0,910.86c41.36,5.72,80.41,14,117.07,28.5c36.51,14.44,68.9,34.1,101.37,57.52c0-5.73,0-9.16,0-12.59
		c0-293.41-0.04-586.83,0.21-880.24c0.01-8.05-2.71-13.48-10.12-18.86c-43.65-31.68-90.39-59.01-147.29-72.37
		C351.59,45.35,330.93,41.51,310.69,37.29z M550.73,1033.62c3.81-2.39,5.59-3.35,7.16-4.51c55.61-40.84,119.91-67.23,193.37-78.61
		c18.23-2.82,18.13-3.25,18.13-18.2c0-294.77,0-589.53,0-884.3c0-3.15,0-6.29,0-12.03c-31.94,7.94-62.26,14-91.21,23.01
		c-45.69,14.22-83.61,38.76-119.73,65.26c-5.56,4.08-7.86,8.18-7.86,14.32c0.17,295.02,0.15,590.04,0.15,885.06
		C550.74,1026.33,550.73,1029.03,550.73,1033.62z M941.32,80.06c-47.07,3.14-92.86,6.37-138.7,9.11
		c-9.89,0.59-12.18,3.61-12.17,11.61c0.3,279.74,0.26,559.47,0.21,839.21c0,7.03,2.47,16.16-1.87,20.51
		c-4.35,4.37-15.74,4.21-24.15,5.62c-49.28,8.27-97.13,19.66-139.37,43.14c-13.65,7.59-26.9,15.65-41.03,23.9
		c59.99-9.93,118.29-20.68,177.1-29c59.27-8.39,119.32-11.43,179.98-12.47C941.32,688.88,941.32,385.45,941.32,80.06z
		 M493.52,1032.81c0.06,0.06-0.52-0.81-1.38-1.37c-25.49-16.58-52.39-31.3-82.19-42.25c-34.93-12.83-72.07-19.34-109.32-25.33
		c-9.14-1.47-11.66-4.26-11.64-11.79c0.28-158.38,0.21-316.76,0.21-475.14c0-125.94-0.04-251.89,0.13-377.83
		c0.01-5.94-0.89-9.06-9.51-9.56c-32.02-1.87-63.96-4.59-95.96-6.68c-14.94-0.97-29.95-1.22-44.99-1.8c0,303.83,0,606.73,0,908.22
		c60.49,4.9,120.38,7.83,179.48,15.1C377.34,1011.62,435.54,1023.22,493.52,1032.81z M58.2,135.58c0,304.27,0,607.7,0,909.92
		c130.83,0,260.21,0,389.6,0c-108-25.82-218.56-34.81-331.14-37.46c0-291.44,0-581.73,0-872.46
		C96.17,135.58,76.84,135.58,58.2,135.58z M1021.05,1044.78c0-304.31,0-607.74,0-909.84c-19.47,0-38.34,0-57.98,0
		c0,291.69,0,581.78,0,873.09c-112.4,2.7-223.14,11.6-331.15,36.75C761.31,1044.78,890.69,1044.78,1021.05,1044.78z"/>
	<path class="st0" d="M310.69,37.29c20.24,4.21,40.9,8.06,61.24,12.83c56.9,13.35,103.64,40.69,147.29,72.37
		c7.41,5.38,10.13,10.81,10.12,18.86c-0.25,293.41-0.21,586.83-0.21,880.24c0,3.43,0,6.86,0,12.59
		c-32.47-23.42-64.86-43.08-101.37-57.52c-36.66-14.5-75.71-22.78-117.07-28.5C310.69,645.45,310.69,342.34,310.69,37.29z"/>
	<path class="st0" d="M550.73,1033.62c0-4.59,0-7.29,0-9.99c0-295.02,0.02-590.04-0.15-885.06c0-6.14,2.3-10.24,7.86-14.32
		c36.12-26.5,74.04-51.04,119.73-65.26c28.95-9.01,59.27-15.07,91.21-23.01c0,5.74,0,8.88,0,12.03c0,294.77,0,589.53,0,884.3
		c0,14.95,0.11,15.38-18.13,18.2c-73.47,11.37-137.76,37.76-193.37,78.61C556.32,1030.27,554.55,1031.23,550.73,1033.62z"/>
	<path class="st0" d="M941.32,80.06c0,305.39,0,608.83,0,911.64c-60.67,1.04-120.72,4.08-179.98,12.47
		c-58.81,8.32-117.11,19.07-177.1,29c14.13-8.25,27.38-16.32,41.03-23.9c42.24-23.48,90.09-34.88,139.37-43.14
		c8.41-1.41,19.79-1.26,24.15-5.62c4.34-4.35,1.87-13.48,1.87-20.51c0.05-279.74,0.09-559.47-0.21-839.21
		c-0.01-8,2.28-11.02,12.17-11.61C848.46,86.43,894.26,83.2,941.32,80.06z"/>
	<path class="st0" d="M493.52,1032.81c-57.98-9.6-116.18-21.19-175.17-28.44c-59.1-7.26-118.99-10.19-179.48-15.1
		c0-301.49,0-604.39,0-908.22c15.04,0.58,30.05,0.83,44.99,1.8c32,2.08,63.94,4.8,95.96,6.68c8.62,0.5,9.52,3.63,9.51,9.56
		c-0.17,125.94-0.13,251.89-0.13,377.83c0,158.38,0.07,316.76-0.21,475.14c-0.01,7.53,2.5,10.32,11.64,11.79
		c37.25,5.98,74.39,12.5,109.32,25.33c29.8,10.95,56.7,25.67,82.19,42.25C493,1032.01,493.58,1032.87,493.52,1032.81z"/>
	<path d="M58.2,135.58c18.64,0,37.97,0,58.46,0c0,290.73,0,581.02,0,872.46c112.59,2.65,223.15,11.64,331.14,37.46
		c-129.39,0-258.77,0-389.6,0C58.2,743.29,58.2,439.86,58.2,135.58z"/>
	<path d="M1021.05,1044.78c-130.36,0-259.75,0-389.13,0c108.02-25.15,218.76-34.05,331.15-36.75c0-291.31,0-581.41,0-873.09
		c19.63,0,38.5,0,57.98,0C1021.05,437.03,1021.05,740.47,1021.05,1044.78z"/>
</g>
</svg>
